<svg width="24" height="24" viewBox="0 0 24 24" fill="none" xmlns="http://www.w3.org/2000/svg">
    <path d="M12.9999 2.00001C10.6353 1.77292 8.26703 2.39503 6.31929 3.75493C4.37155 5.11482 2.97153 7.12368 2.36994 9.42175C1.76835 11.7198 2.00449 14.157 3.03608 16.2968C4.06766 18.4366 5.82731 20.1393 7.9999 21.1C9.25812 21.669 10.6192 21.9752 11.9999 22C14.1979 22.0002 16.3347 21.2762 18.0799 19.94C18.2905 19.7794 18.4288 19.5418 18.4644 19.2793C18.5001 19.0168 18.4301 18.7509 18.2699 18.54C18.1903 18.4343 18.0905 18.3454 17.9763 18.2786C17.8621 18.2117 17.7357 18.1682 17.6046 18.1505C17.4734 18.1328 17.3401 18.1413 17.2122 18.1756C17.0844 18.2098 16.9646 18.2691 16.8599 18.35C15.8228 19.1334 14.6104 19.6523 13.3276 19.8618C12.0449 20.0714 10.7304 19.9652 9.4979 19.5525C8.26541 19.1398 7.15203 18.433 6.25409 17.4933C5.35615 16.5536 4.70069 15.4092 4.34443 14.1593C3.98817 12.9093 3.94182 11.5913 4.20941 10.3194C4.477 9.04753 5.05046 7.85998 5.88018 6.85952C6.7099 5.85906 7.77089 5.07583 8.97135 4.57759C10.1718 4.07935 11.4756 3.8811 12.7699 4.00001C14.7786 4.2325 16.6297 5.20165 17.9652 6.72001C19.3007 8.23837 20.0257 10.1981 19.9999 12.22V12.9C19.9987 13.1297 19.9513 13.3569 19.8604 13.5679C19.7696 13.7789 19.6371 13.9694 19.471 14.1281C19.3048 14.2867 19.1084 14.4103 18.8935 14.4914C18.6785 14.5725 18.4494 14.6094 18.2199 14.6C17.7621 14.5497 17.3404 14.3278 17.0398 13.9789C16.7392 13.6301 16.582 13.1802 16.5999 12.72V8.40001C16.5999 8.13479 16.4945 7.88044 16.307 7.6929C16.1195 7.50536 15.8651 7.40001 15.5999 7.40001C15.3557 7.39794 15.1193 7.48527 14.935 7.64553C14.7508 7.80579 14.6316 8.02791 14.5999 8.27001C13.6693 7.39359 12.4383 6.90691 11.1599 6.91001C10.2911 6.91652 9.43838 7.14532 8.68301 7.57463C7.92764 8.00394 7.29474 8.61946 6.84456 9.36259C6.39439 10.1057 6.14193 10.9517 6.11123 11.82C6.08053 12.6883 6.27261 13.55 6.66917 14.3231C7.06574 15.0961 7.65359 15.7548 8.37676 16.2364C9.09992 16.718 9.93432 17.0065 10.8005 17.0743C11.6667 17.1422 12.5359 16.9872 13.3252 16.6241C14.1145 16.261 14.7978 15.7019 15.3099 15C15.6002 15.449 15.9868 15.8278 16.4417 16.1087C16.8967 16.3896 17.4084 16.5657 17.9399 16.6241C18.4714 16.6825 19.0092 16.6218 19.5143 16.4464C20.0194 16.271 20.479 15.9853 20.8599 15.61C21.2265 15.2613 21.5169 14.8405 21.7131 14.3742C21.9093 13.9078 22.0069 13.4059 21.9999 12.9V12.22C22.0223 9.70698 21.1161 7.27416 19.4552 5.38811C17.7943 3.50207 15.4956 2.29557 12.9999 2.00001ZM11.1799 15.09C10.5688 15.09 9.97133 14.9088 9.46318 14.5692C8.95504 14.2297 8.55898 13.7471 8.32511 13.1825C8.09123 12.6179 8.03004 11.9966 8.14927 11.3972C8.2685 10.7978 8.56279 10.2472 8.99494 9.81505C9.42708 9.3829 9.97767 9.08861 10.5771 8.96938C11.1765 8.85015 11.7978 8.91134 12.3624 9.14522C12.927 9.37909 13.4096 9.77515 13.7491 10.2833C14.0887 10.7914 14.2699 11.3889 14.2699 12C14.2673 12.8187 13.9409 13.6031 13.3619 14.1821C12.783 14.761 11.9986 15.0874 11.1799 15.09Z" fill="#007AFF"/>
    <path d="M12.9999 2.00001C10.6353 1.77292 8.26703 2.39503 6.31929 3.75493C4.37155 5.11482 2.97153 7.12368 2.36994 9.42175C1.76835 11.7198 2.00449 14.157 3.03608 16.2968C4.06766 18.4366 5.82731 20.1393 7.9999 21.1C9.25812 21.669 10.6192 21.9752 11.9999 22C14.1979 22.0002 16.3347 21.2762 18.0799 19.94C18.2905 19.7794 18.4288 19.5418 18.4644 19.2793C18.5001 19.0168 18.4301 18.7509 18.2699 18.54C18.1903 18.4343 18.0905 18.3454 17.9763 18.2786C17.8621 18.2117 17.7357 18.1682 17.6046 18.1505C17.4734 18.1328 17.3401 18.1413 17.2122 18.1756C17.0844 18.2098 16.9646 18.2691 16.8599 18.35C15.8228 19.1334 14.6104 19.6523 13.3276 19.8618C12.0449 20.0714 10.7304 19.9652 9.4979 19.5525C8.26541 19.1398 7.15203 18.433 6.25409 17.4933C5.35615 16.5536 4.70069 15.4092 4.34443 14.1593C3.98817 12.9093 3.94182 11.5913 4.20941 10.3194C4.477 9.04753 5.05046 7.85998 5.88018 6.85952C6.7099 5.85906 7.77089 5.07583 8.97135 4.57759C10.1718 4.07935 11.4756 3.8811 12.7699 4.00001C14.7786 4.2325 16.6297 5.20165 17.9652 6.72001C19.3007 8.23837 20.0257 10.1981 19.9999 12.22V12.9C19.9987 13.1297 19.9513 13.3569 19.8604 13.5679C19.7696 13.7789 19.6371 13.9694 19.471 14.1281C19.3048 14.2867 19.1084 14.4103 18.8935 14.4914C18.6785 14.5725 18.4494 14.6094 18.2199 14.6C17.7621 14.5497 17.3404 14.3278 17.0398 13.9789C16.7392 13.6301 16.582 13.1802 16.5999 12.72V8.40001C16.5999 8.13479 16.4945 7.88044 16.307 7.6929C16.1195 7.50536 15.8651 7.40001 15.5999 7.40001C15.3557 7.39794 15.1193 7.48527 14.935 7.64553C14.7508 7.80579 14.6316 8.02791 14.5999 8.27001C13.6693 7.39359 12.4383 6.90691 11.1599 6.91001C10.2911 6.91652 9.43838 7.14532 8.68301 7.57463C7.92764 8.00394 7.29474 8.61946 6.84456 9.36259C6.39439 10.1057 6.14193 10.9517 6.11123 11.82C6.08053 12.6883 6.27261 13.55 6.66917 14.3231C7.06574 15.0961 7.65359 15.7548 8.37676 16.2364C9.09992 16.718 9.93432 17.0065 10.8005 17.0743C11.6667 17.1422 12.5359 16.9872 13.3252 16.6241C14.1145 16.261 14.7978 15.7019 15.3099 15C15.6002 15.449 15.9868 15.8278 16.4417 16.1087C16.8967 16.3896 17.4084 16.5657 17.9399 16.6241C18.4714 16.6825 19.0092 16.6218 19.5143 16.4464C20.0194 16.271 20.479 15.9853 20.8599 15.61C21.2265 15.2613 21.5169 14.8405 21.7131 14.3742C21.9093 13.9078 22.0069 13.4059 21.9999 12.9V12.22C22.0223 9.70698 21.1161 7.27416 19.4552 5.38811C17.7943 3.50207 15.4956 2.29557 12.9999 2.00001ZM11.1799 15.09C10.5688 15.09 9.97133 14.9088 9.46318 14.5692C8.95504 14.2297 8.55898 13.7471 8.32511 13.1825C8.09123 12.6179 8.03004 11.9966 8.14927 11.3972C8.2685 10.7978 8.56279 10.2472 8.99494 9.81505C9.42708 9.3829 9.97767 9.08861 10.5771 8.96938C11.1765 8.85015 11.7978 8.91134 12.3624 9.14522C12.927 9.37909 13.4096 9.77515 13.7491 10.2833C14.0887 10.7914 14.2699 11.3889 14.2699 12C14.2673 12.8187 13.9409 13.6031 13.3619 14.1821C12.783 14.761 11.9986 15.0874 11.1799 15.09Z" fill="url(#paint0_linear_130_21)"/>
    <defs>
        <linearGradient id="paint0_linear_130_21" x1="2.04395" y1="1.95419" x2="22.8706" y2="2.9033" gradientUnits="userSpaceOnUse">
            <stop stop-color="#0051FF"/>
            <stop offset="0.42" stop-color="#0F54EA"/>
            <stop offset="1" stop-color="#2459CC"/>
        </linearGradient>
    </defs>
</svg>
